<svg aria-hidden="true" style="position: absolute; width: 0; height: 0; overflow: hidden;" version="1.1" xmlns="http://www.w3.org/2000/svg" xmlns:xlink="http://www.w3.org/1999/xlink">
<defs>
<symbol id="icon-open" viewBox="0 0 20 20">
<path d="M1 1h18v2h-18v-2zM1 9h18v2h-18v-2zM1 17h18v2h-18v-2zM1 5h18v2h-18v-2zM1 13h18v2h-18v-2z"></path>
</symbol>
<symbol id="icon-close" viewBox="0 0 20 20">
<path d="M10 8.586l-7.071-7.071-1.414 1.414 7.071 7.071-7.071 7.071 1.414 1.414 7.071-7.071 7.071 7.071 1.414-1.414-7.071-7.071 7.071-7.071-1.414-1.414-7.071 7.071z"></path>
</symbol>
<symbol id="icon-heart" viewBox="0 0 20 20">
<path d="M10 3.22l-0.61-0.6c-0.983-0.931-2.314-1.504-3.779-1.504-3.038 0-5.5 2.462-5.5 5.5 0 1.462 0.571 2.791 1.501 3.776l-0.002-0.003 8.39 8.39 8.39-8.4c0.928-0.983 1.499-2.312 1.499-3.774 0-3.038-2.462-5.5-5.5-5.5-1.465 0-2.796 0.573-3.782 1.506l0.003-0.002-0.61 0.61z"></path>
</symbol>
<symbol id="icon-leaf" viewBox="0 0 20 20">
<path d="M5.33 12.77c-0.41 0.155-0.884 0.245-1.38 0.245-2.209 0-4-1.791-4-4 0-1.872 1.286-3.443 3.022-3.88l0.028-0.006v-0.13c0-0.001 0-0.003 0-0.004 0-2.209 1.791-4 4-4 0.621 0 1.209 0.142 1.734 0.394l-0.024-0.010c0.646-0.846 1.655-1.386 2.79-1.386 1.773 0 3.238 1.318 3.468 3.028l0.002 0.018c1.038 0.205 1.836 1.030 1.998 2.066l0.002 0.014c1.748 0.454 3.017 2.017 3.017 3.877 0 2.209-1.791 4-4 4-0.624 0-1.215-0.143-1.741-0.398l0.024 0.010c-0.541 0.869-1.317 1.548-2.238 1.957l-0.032 0.013v3.42l2 1v1h-8v-1l2-1v-3l-2.67-2.23zM5 10l3 3v-3h-3z"></path>
</symbol>
<symbol id="icon-glass" viewBox="0 0 20 20">
<path d="M11 0h1v3l3 7v8c0 1.105-0.895 2-2 2v0h-8c-1.1 0-2.31-0.84-2.7-1.88l-2.3-6.12v-2c0-1.105 0.895-2 2-2v0h7v-6c0-1.105 0.895-2 2-2v0zM17 10h3v10h-3v-10z"></path>
</symbol>
<symbol id="icon-pocket" viewBox="0 0 32 32">
<path fill="#ef3f56" style="fill: var(--color1, #ef3f56)" d="M25.084 13.679l-7.528 7.225c-0.427 0.407-0.973 0.611-1.521 0.611-0.547 0-1.095-0.204-1.521-0.611l-7.528-7.225c-0.876-0.837-0.903-2.228-0.065-3.101 0.84-0.876 2.228-0.905 3.1-0.067l6.015 5.763 6.023-5.763c0.88-0.841 2.263-0.809 3.101 0.065 0.841 0.86 0.82 2.26-0.060 3.101zM31.861 3.617c-0.399-1.144-1.5-1.915-2.721-1.915h-26.235c-1.2 0-2.289 0.752-2.716 1.873-0.125 0.333-0.189 0.681-0.189 1.032v9.66l0.112 1.921c0.464 4.369 2.729 8.189 6.243 10.852 0.060 0.048 0.125 0.093 0.191 0.14l0.040 0.031c1.881 1.373 3.985 2.304 6.259 2.763 1.048 0.211 2.121 0.32 3.185 0.32 0.985 0 1.975-0.089 2.945-0.272 0.117-0.039 0.235-0.060 0.352-0.080 0.031 0 0.065-0.020 0.099-0.039 2.177-0.48 4.197-1.381 6.011-2.7l0.039-0.041 0.18-0.14c3.503-2.66 5.765-6.483 6.248-10.864l0.097-1.921v-9.644c0-0.335-0.041-0.667-0.161-0.989z"></path>
</symbol>
<symbol id="icon-ok" viewBox="0 0 32 32">
<path fill="#f60" style="fill: var(--color2, #f60)" d="M29.6 12.985h-9.453c-0.756-0.091-1.332-0.756-1.332-1.54v-9.92c0.001-0.845-0.685-1.525-1.524-1.525h-3.308c-0.847 0-1.527 0.687-1.527 1.527v10.024c-0.041 0.756-0.665 1.365-1.415 1.435h-2.476c-0.728-0.089-1.291-0.7-1.339-1.436v-10.023c0-0.847-0.687-1.527-1.525-1.527h-3.309c-0.845 0-1.525 0.687-1.525 1.527v28.947c0 0.847 0.687 1.527 1.525 1.527h27.215c0.847 0 1.525-0.687 1.525-1.527v-15.961c-0.005-0.847-0.685-1.527-1.532-1.527zM25.245 23.932c0 0.847-0.687 1.527-1.525 1.527h-3.308c-0.847 0-1.525-0.687-1.525-1.527v-3.121c0-0.847 0.687-1.527 1.525-1.527h3.308c0.847 0 1.525 0.687 1.525 1.527z"></path>
</symbol>
</defs>
</svg>
